<svg xmlns="http://www.w3.org/2000/svg" viewBox="0 0 64 64" role="img" aria-label="Okibi seal">
  <g transform="rotate(-3 32 32)">
    <rect x="4" y="4" width="56" height="56" rx="8" fill="#ff7c50"/>
    <path transform="translate(13.722 45.921) scale(0.036266 -0.036266)" fill="#231103" d="M713 172Q705 172 699.5 168.5Q694 165 694 159Q694 153 700 147Q769 68 946 33Q966 28 966 23Q965 19 960.5 16.5Q956 14 948 12Q921 3 906.0 -14.0Q891 -31 885 -61Q882 -78 869 -78Q863 -78 860 -76Q783 -43 736.5 15.5Q690 74 668 144Q665 156 661 156Q658 156 653 144Q628 65 553.5 10.5Q479 -44 318 -81Q314 -82 307 -82Q297 -82 295 -77V-75Q295 -68 312 -60Q420 -17 474.0 33.5Q528 84 548 149Q549 152 549 156Q549 172 530 172H387Q369 172 369 157Q369 152 370 149Q373 137 373 126Q373 99 358.5 81.5Q344 64 322 64Q305 64 290 75Q278 84 277 100Q274 140 260 182Q255 196 245 196Q235 196 230 179Q210 99 173.0 36.5Q136 -26 76 -76Q59 -90 54 -82Q52 -80 52 -75Q52 -70 58 -59Q103 10 126.0 97.0Q149 184 156.0 287.0Q163 390 163 541V558Q163 574 162 584Q158 749 152 828V832Q152 848 168 848Q173 848 176 847Q240 832 265.0 822.5Q290 813 290 806Q290 802 282 797L278 794Q271 789 268.0 783.5Q265 778 265 769L264 607Q264 599 268.0 591.5Q272 584 277.0 582.0Q282 580 284 586Q292 615 299 654Q300 670 313 670Q320 670 325 666L338 657Q346 652 351 652Q357 652 360.5 657.5Q364 663 364 672Q363 708 359 754V758Q359 773 372 773Q378 773 382 771L455 739Q468 733 481 733H548Q567 733 570 752Q576 794 578 834Q578 845 584.5 849.5Q591 854 603 852Q727 828 727 816Q727 812 718 807L710 803Q697 796 689 790Q673 777 645 759Q635 751 635 745Q635 740 640.0 736.5Q645 733 654 733H772Q788 733 798 745L810 761Q814 766 820.5 773.5Q827 781 831.0 785.0Q835 789 839 789Q847 789 880.0 764.5Q913 740 929 722Q934 715 934 711Q934 703 925 698L915 692Q906 688 901.5 683.0Q897 678 897 669V279Q894 273 894 266Q894 258 900 252Q946 212 957 201Q966 192 966 184Q966 179 961 176Q956 172 944 172ZM651 693Q651 698 646.0 701.5Q641 705 632 705H482Q472 705 466.5 699.5Q461 694 461 684V371Q461 352 474 352Q480 352 487 358Q530 397 561 446Q564 452 564 457Q564 463 559.0 467.0Q554 471 546 471H543Q523 469 508 464Q502 462 499 462Q487 462 480 475L477 481Q474 487 474 493Q474 506 494 504Q513 502 551 500H571Q581 500 586.5 505.5Q592 511 592 521V597Q592 618 570 618Q550 616 504 614Q485 614 483 623V624Q483 631 502 636L520 640Q581 654 638 680Q644 682 647.5 686.0Q651 690 651 693ZM786 508Q798 508 798 526V684Q798 694 792.5 699.5Q787 705 777 705H750Q742 705 737.0 701.5Q732 698 732 692Q732 685 737 679L758 653Q765 644 767.5 636.5Q770 629 766 628Q763 627 757 627Q749 627 740 630Q730 633 720 633Q712 633 699.0 631.0Q686 629 679 628Q659 626 659 606V521Q659 511 664.5 505.5Q670 500 680 500H691Q708 500 717 512L727 524Q740 540 744 537L772 514Q779 508 786 508ZM42 414Q42 441 67 466Q81 482 91.0 521.0Q101 560 101 608Q101 636 107 636Q113 636 119 619Q149 537 149 478Q149 418 118 387Q101 371 82 371Q65 371 53.5 383.0Q42 395 42 414ZM679 511Q673 511 673 518Q673 525 677 534Q690 570 698 598Q703 613 714 613Q718 613 724 610L759 595Q766 592 770.5 587.5Q775 583 775 579Q775 575 770 572L766 571Q762 570 754.0 568.0Q746 566 742 561Q719 540 695 520Q683 511 679 511ZM539 513Q532 516 529.5 521.5Q527 527 525 537Q520 562 508 583Q499 602 503 605Q505 606 509 606Q515 606 524 602Q553 590 566.5 574.0Q580 558 580 542Q580 529 571.5 520.0Q563 511 551 511Q547 511 539 513ZM586 298Q697 288 697 275Q697 273 689 267L686 265Q674 257 671 241Q671 236 669 224V219Q669 201 688 201H795Q811 201 820 214L829 226Q838 240 838 247Q838 252 832 252Q820 250 814 250Q807 250 802.5 255.5Q798 261 798 271V453Q798 472 791 472L778 471H680Q659 471 659 466Q659 462 678 456Q727 442 750.5 420.0Q774 398 774 375Q774 361 765.0 351.5Q756 342 743 342Q737 342 733 343Q726 345 722.5 349.5Q719 354 714 362Q707 376 685 406Q678 416 669 416Q659 416 659 401L662 347Q662 338 660.5 332.5Q659 327 654 322Q634 306 604 306Q588 306 588 326Q590 344 590 350L592 370Q592 386 581 386Q575 386 567 380Q528 349 486 327Q468 318 465 324Q464 325 462.5 321.0Q461 317 461 311Q462 304 462 294L463 285Q463 275 456 268Q445 257 423.5 248.5Q402 240 379 240Q368 240 361.5 246.0Q355 252 355 260Q362 350 364 459V532Q364 550 353 550Q346 550 338 542Q306 510 273 480Q262 470 262 455Q256 348 250 294V291Q250 275 264 268Q305 246 334 213Q345 201 360 201H540Q560 201 562 221Q563 232 563 255Q563 270 562 278Q562 300 586 298Z"/>
  </g>
</svg>
